<mxfile host="Electron" modified="2023-10-17T07:20:40.021Z" agent="Mozilla/5.0 (Windows NT 10.0; Win64; x64) AppleWebKit/537.36 (KHTML, like Gecko) draw.io/22.0.2 Chrome/114.0.5735.289 Electron/25.8.4 Safari/537.36" etag="ElcRUtN10l7ywzCXCGOE" version="22.0.2" type="device">
  <diagram name="Page-1" id="V1ghI25NFUW4d5NA44x3">
    <mxGraphModel dx="2245" dy="787" grid="1" gridSize="10" guides="1" tooltips="1" connect="1" arrows="1" fold="1" page="1" pageScale="1" pageWidth="827" pageHeight="1169" math="0" shadow="0">
      <root>
        <mxCell id="0" />
        <mxCell id="1" parent="0" />
        <mxCell id="XmPDaHnqyTLfZXPVpX8O-32" style="edgeStyle=none;shape=connector;rounded=0;orthogonalLoop=1;jettySize=auto;html=1;exitX=1;exitY=0.3333333333333333;exitDx=0;exitDy=0;exitPerimeter=0;entryX=0;entryY=0.5;entryDx=0;entryDy=0;labelBackgroundColor=default;strokeColor=default;align=center;verticalAlign=middle;fontFamily=Helvetica;fontSize=11;fontColor=default;endArrow=none;endFill=0;" edge="1" parent="1" source="XmPDaHnqyTLfZXPVpX8O-1" target="XmPDaHnqyTLfZXPVpX8O-4">
          <mxGeometry relative="1" as="geometry" />
        </mxCell>
        <mxCell id="XmPDaHnqyTLfZXPVpX8O-33" style="edgeStyle=none;shape=connector;rounded=0;orthogonalLoop=1;jettySize=auto;html=1;exitX=1;exitY=0.3333333333333333;exitDx=0;exitDy=0;exitPerimeter=0;entryX=0;entryY=0;entryDx=0;entryDy=0;labelBackgroundColor=default;strokeColor=default;align=center;verticalAlign=middle;fontFamily=Helvetica;fontSize=11;fontColor=default;endArrow=none;endFill=0;" edge="1" parent="1" source="XmPDaHnqyTLfZXPVpX8O-1" target="XmPDaHnqyTLfZXPVpX8O-17">
          <mxGeometry relative="1" as="geometry" />
        </mxCell>
        <mxCell id="XmPDaHnqyTLfZXPVpX8O-1" value="user" style="shape=umlActor;html=1;verticalLabelPosition=bottom;verticalAlign=top;align=center;" vertex="1" parent="1">
          <mxGeometry x="-230" y="130" width="30" height="60" as="geometry" />
        </mxCell>
        <mxCell id="XmPDaHnqyTLfZXPVpX8O-7" value="" style="rounded=0;orthogonalLoop=1;jettySize=auto;html=1;exitX=1;exitY=1;exitDx=0;exitDy=0;" edge="1" parent="1" source="XmPDaHnqyTLfZXPVpX8O-4" target="XmPDaHnqyTLfZXPVpX8O-6">
          <mxGeometry relative="1" as="geometry" />
        </mxCell>
        <mxCell id="XmPDaHnqyTLfZXPVpX8O-8" value="&amp;lt;&amp;lt;uses&amp;gt;&amp;gt;" style="edgeLabel;html=1;align=center;verticalAlign=middle;resizable=0;points=[];" vertex="1" connectable="0" parent="XmPDaHnqyTLfZXPVpX8O-7">
          <mxGeometry x="0.3112" y="2" relative="1" as="geometry">
            <mxPoint as="offset" />
          </mxGeometry>
        </mxCell>
        <mxCell id="XmPDaHnqyTLfZXPVpX8O-10" value="" style="rounded=0;orthogonalLoop=1;jettySize=auto;html=1;" edge="1" parent="1" source="XmPDaHnqyTLfZXPVpX8O-4" target="XmPDaHnqyTLfZXPVpX8O-9">
          <mxGeometry relative="1" as="geometry" />
        </mxCell>
        <mxCell id="XmPDaHnqyTLfZXPVpX8O-11" value="&amp;lt;&amp;lt;uses&amp;gt;&amp;gt;" style="edgeLabel;html=1;align=center;verticalAlign=middle;resizable=0;points=[];" vertex="1" connectable="0" parent="XmPDaHnqyTLfZXPVpX8O-10">
          <mxGeometry x="-0.0496" y="-2" relative="1" as="geometry">
            <mxPoint as="offset" />
          </mxGeometry>
        </mxCell>
        <mxCell id="XmPDaHnqyTLfZXPVpX8O-15" style="rounded=0;orthogonalLoop=1;jettySize=auto;html=1;exitX=0.671;exitY=0.986;exitDx=0;exitDy=0;exitPerimeter=0;" edge="1" parent="1" source="XmPDaHnqyTLfZXPVpX8O-4" target="XmPDaHnqyTLfZXPVpX8O-14">
          <mxGeometry relative="1" as="geometry" />
        </mxCell>
        <mxCell id="XmPDaHnqyTLfZXPVpX8O-16" value="&amp;lt;&amp;lt;uses&amp;gt;&amp;gt;" style="edgeLabel;html=1;align=center;verticalAlign=middle;resizable=0;points=[];" vertex="1" connectable="0" parent="XmPDaHnqyTLfZXPVpX8O-15">
          <mxGeometry x="-0.0362" y="-1" relative="1" as="geometry">
            <mxPoint x="1" as="offset" />
          </mxGeometry>
        </mxCell>
        <mxCell id="XmPDaHnqyTLfZXPVpX8O-18" style="rounded=0;orthogonalLoop=1;jettySize=auto;html=1;exitX=0.236;exitY=0.957;exitDx=0;exitDy=0;exitPerimeter=0;" edge="1" parent="1" source="XmPDaHnqyTLfZXPVpX8O-4" target="XmPDaHnqyTLfZXPVpX8O-17">
          <mxGeometry relative="1" as="geometry" />
        </mxCell>
        <mxCell id="XmPDaHnqyTLfZXPVpX8O-21" value="&amp;lt;&amp;lt;uses&amp;gt;&amp;gt;" style="edgeLabel;html=1;align=center;verticalAlign=middle;resizable=0;points=[];" vertex="1" connectable="0" parent="XmPDaHnqyTLfZXPVpX8O-18">
          <mxGeometry x="0.043" y="-1" relative="1" as="geometry">
            <mxPoint as="offset" />
          </mxGeometry>
        </mxCell>
        <mxCell id="XmPDaHnqyTLfZXPVpX8O-4" value="withdraw cash" style="ellipse;whiteSpace=wrap;html=1;" vertex="1" parent="1">
          <mxGeometry x="80" y="100" width="140" height="70" as="geometry" />
        </mxCell>
        <mxCell id="XmPDaHnqyTLfZXPVpX8O-5" value="&lt;b&gt;ATM&lt;/b&gt;" style="text;html=1;align=center;verticalAlign=middle;resizable=0;points=[];autosize=1;strokeColor=none;fillColor=none;" vertex="1" parent="1">
          <mxGeometry x="120" y="40" width="50" height="30" as="geometry" />
        </mxCell>
        <mxCell id="XmPDaHnqyTLfZXPVpX8O-27" value="" style="edgeStyle=none;shape=connector;rounded=0;orthogonalLoop=1;jettySize=auto;html=1;labelBackgroundColor=default;strokeColor=default;align=center;verticalAlign=middle;fontFamily=Helvetica;fontSize=11;fontColor=default;endArrow=classic;" edge="1" parent="1" source="XmPDaHnqyTLfZXPVpX8O-6" target="XmPDaHnqyTLfZXPVpX8O-26">
          <mxGeometry relative="1" as="geometry" />
        </mxCell>
        <mxCell id="XmPDaHnqyTLfZXPVpX8O-30" value="&amp;lt;&amp;lt;uses&amp;gt;&amp;gt;" style="edgeLabel;html=1;align=center;verticalAlign=middle;resizable=0;points=[];fontSize=11;fontFamily=Helvetica;fontColor=default;" vertex="1" connectable="0" parent="XmPDaHnqyTLfZXPVpX8O-27">
          <mxGeometry x="0.0197" y="3" relative="1" as="geometry">
            <mxPoint as="offset" />
          </mxGeometry>
        </mxCell>
        <mxCell id="XmPDaHnqyTLfZXPVpX8O-29" value="" style="edgeStyle=none;shape=connector;rounded=0;orthogonalLoop=1;jettySize=auto;html=1;labelBackgroundColor=default;strokeColor=default;align=center;verticalAlign=middle;fontFamily=Helvetica;fontSize=11;fontColor=default;endArrow=classic;" edge="1" parent="1" source="XmPDaHnqyTLfZXPVpX8O-6" target="XmPDaHnqyTLfZXPVpX8O-28">
          <mxGeometry relative="1" as="geometry" />
        </mxCell>
        <mxCell id="XmPDaHnqyTLfZXPVpX8O-31" value="&amp;lt;&amp;lt;uses&amp;gt;&amp;gt;" style="edgeLabel;html=1;align=center;verticalAlign=middle;resizable=0;points=[];fontSize=11;fontFamily=Helvetica;fontColor=default;" vertex="1" connectable="0" parent="XmPDaHnqyTLfZXPVpX8O-29">
          <mxGeometry x="-0.3804" y="2" relative="1" as="geometry">
            <mxPoint as="offset" />
          </mxGeometry>
        </mxCell>
        <mxCell id="XmPDaHnqyTLfZXPVpX8O-6" value="verify account" style="ellipse;whiteSpace=wrap;html=1;fillColor=#d5e8d4;strokeColor=#82b366;" vertex="1" parent="1">
          <mxGeometry x="300" y="200" width="140" height="70" as="geometry" />
        </mxCell>
        <mxCell id="XmPDaHnqyTLfZXPVpX8O-9" value="debit account" style="ellipse;whiteSpace=wrap;html=1;" vertex="1" parent="1">
          <mxGeometry x="30" y="360" width="140" height="70" as="geometry" />
        </mxCell>
        <mxCell id="XmPDaHnqyTLfZXPVpX8O-14" value="save updated account" style="ellipse;whiteSpace=wrap;html=1;" vertex="1" parent="1">
          <mxGeometry x="160" y="280" width="140" height="70" as="geometry" />
        </mxCell>
        <mxCell id="XmPDaHnqyTLfZXPVpX8O-17" value="disribute cash" style="ellipse;whiteSpace=wrap;html=1;" vertex="1" parent="1">
          <mxGeometry x="-70" y="260" width="140" height="70" as="geometry" />
        </mxCell>
        <mxCell id="XmPDaHnqyTLfZXPVpX8O-26" value="load account" style="ellipse;whiteSpace=wrap;html=1;" vertex="1" parent="1">
          <mxGeometry x="250" y="380" width="140" height="70" as="geometry" />
        </mxCell>
        <mxCell id="XmPDaHnqyTLfZXPVpX8O-28" value="check permissions" style="ellipse;whiteSpace=wrap;html=1;" vertex="1" parent="1">
          <mxGeometry x="400" y="350" width="140" height="70" as="geometry" />
        </mxCell>
      </root>
    </mxGraphModel>
  </diagram>
</mxfile>
